<?xml version="1.0" encoding="utf-8"?>
<!-- Generator: Adobe Illustrator 16.0.0, SVG Export Plug-In . SVG Version: 6.00 Build 0)  -->
<!DOCTYPE svg PUBLIC "-//W3C//DTD SVG 1.1//EN" "http://www.w3.org/Graphics/SVG/1.1/DTD/svg11.dtd">
<svg version="1.1" id="logo_bna" xmlns="http://www.w3.org/2000/svg" xmlns:xlink="http://www.w3.org/1999/xlink" x="0px" y="0px"
	 width="300px" height="60px" viewBox="0 0 499 110" enable-background="new 0 0 499 110" xml:space="preserve">
<g>
	<g>
		<path fill="#FFFFFF" d="M71.802,33.489C71.802,33.489,71.577,33.489,71.802,33.489c-0.226-0.226-0.451,0-0.451,0l-10.827,5.188
			l0,0h21.879l0,0L71.802,33.489z"/>
		<path fill="#FFFFFF" d="M71.577,17.7c-20.976,0-37.893,16.917-37.893,37.895c0,20.977,16.917,37.893,37.893,37.893
			c20.977,0,37.893-16.916,37.893-37.893C109.244,34.617,92.328,17.7,71.577,17.7z M92.779,77.473
			C92.779,77.698,92.779,77.698,92.779,77.473L50.15,77.698c0,0-0.226,0-0.226-0.226v-4.285c0,0,0-0.226,0.226-0.226h42.404
			c0,0,0,0,0,0.226v4.285H92.779z M64.134,66.421V44.993h4.962v21.428h4.736V44.993h4.962v21.428h4.962V44.993h4.962v21.428h2.256
			v4.285v0.226h-38.57c0,0-0.226,0-0.226-0.226v-4.285h2.255V44.993h4.962v21.428H64.134z M94.132,40.257l-1.353,2.255l-0.226,0.227
			H50.375c0,0-0.226,0-0.226-0.227l-1.354-2.255v-0.226l22.555-11.955h0.226L94.132,40.257
			C94.358,40.257,94.358,40.257,94.132,40.257z"/>
	</g>
	<g>
		<path fill="#FFFFFF" d="M203.525,73.639c0.226,0,0.902-0.226,1.579-0.226c0.676,0,1.354-0.226,2.03-0.226l13.533-34.285h6.09
			l13.082,34.285c0.677,0,1.353,0,2.03,0.226c0.676,0,1.127,0.226,1.579,0.226v4.06h-14.209v-4.06c0.451,0,0.901-0.226,1.578-0.226
			s1.354-0.226,2.03-0.226l-2.255-6.315h-15.112l-2.256,6.315c0.678,0,1.354,0,2.03,0.226c0.676,0,1.128,0.226,1.579,0.226v4.06
			h-13.082v-4.06H203.525z M228.786,62.361l-3.383-9.473c-0.677-1.58-1.128-2.933-1.353-4.06c-0.451-1.128-0.677-2.031-0.903-2.932
			h-0.225c-0.226,0.901-0.676,1.804-0.902,2.932c-0.451,1.127-0.902,2.48-1.353,4.06l-3.609,9.473H228.786z"/>
		<path fill="#FFFFFF" d="M128.867,73.639c0.451-0.226,1.128-0.226,2.03-0.451c0.902,0,1.805,0,2.707,0V43.415
			c-0.902,0-1.579,0-2.707-0.226c-0.902-0.226-1.579-0.226-2.03-0.451v-4.061h16.69c1.805,0,3.384,0.226,5.188,0.451
			c1.579,0.226,2.932,0.902,4.286,1.58c1.127,0.676,2.255,1.804,2.932,2.933c0.676,1.127,1.127,2.706,1.127,4.511
			c0,2.481-0.677,4.285-2.03,5.864c-1.354,1.354-2.932,2.481-5.188,2.932v0.451c1.128,0.227,2.256,0.45,3.384,1.128
			c1.127,0.451,2.03,1.129,2.707,1.805c0.902,0.677,1.353,1.805,1.804,2.706c0.451,1.129,0.677,2.255,0.677,3.61
			c0,2.028-0.451,3.607-1.128,4.962c-0.677,1.353-1.804,2.481-3.157,3.383c-1.354,0.902-2.933,1.579-4.737,2.03
			c-1.804,0.45-3.834,0.676-6.089,0.676h-16.465V73.639L128.867,73.639z M139.919,55.144h4.737c2.481,0,4.511-0.452,5.639-1.58
			c1.127-0.901,1.804-2.481,1.804-4.511c0-3.833-2.48-5.638-7.218-5.638h-4.962V55.144L139.919,55.144z M139.919,72.736h5.188
			c2.932,0,4.962-0.451,6.315-1.579c1.354-0.902,2.03-2.706,2.03-4.736s-0.677-3.834-1.804-4.962
			c-1.354-1.128-3.383-1.804-6.315-1.804h-5.414V72.736z"/>
		<path fill="#FFFFFF" d="M162.925,73.639c0.452-0.226,1.128-0.226,2.03-0.451s1.804-0.226,2.707-0.226V43.189
			c-0.903,0-1.579,0-2.707-0.226c-0.902-0.226-1.579-0.226-2.03-0.452v-4.059h10.827l16.466,23.458
			c0.902,1.353,1.804,2.48,2.48,3.609c0.677,1.128,1.354,2.029,1.354,2.48h0.226c0-0.451,0-1.128-0.226-2.03
			c0-0.902,0-2.256,0-3.608V43.415c-0.903,0-1.58,0-2.481-0.226c-0.902-0.226-1.579-0.226-2.03-0.451v-4.061h14.661v4.061
			c-0.451,0.226-1.128,0.226-2.03,0.451c-0.902,0.226-1.804,0.226-2.481,0.226v34.283h-5.639l-17.368-24.359
			c-0.451-0.677-0.902-1.128-1.354-1.805c-0.451-0.677-0.676-1.127-1.127-1.804c-0.226-0.452-0.677-0.902-0.902-1.353
			s-0.452-0.677-0.452-0.903h-0.226c0,0.452,0.226,1.128,0.226,2.03c0,0.903,0,2.03,0,2.932v20.751c0.677,0,1.58,0,2.481,0.226
			c0.902,0,1.579,0.226,2.03,0.226v4.06h-14.886v-4.06H162.925z"/>
	</g>
	<g>
		<g>
			<defs>
				<path id="SVGID_1_" d="M71.577,105.217c27.292,0,49.622-22.105,49.622-49.622c0-27.519-22.104-49.623-49.622-49.624
					c-27.292,0-49.621,22.104-49.621,49.624C21.956,83.111,44.06,105.217,71.577,105.217z M71.577,12.513
					c23.683,0,43.081,19.172,43.081,43.082c0,23.909-19.172,43.08-43.081,43.08c-23.683,0-43.081-19.171-43.081-43.08
					C28.496,31.685,47.668,12.513,71.577,12.513z"/>
			</defs>
			<clipPath id="SVGID_2_">
				<use xlink:href="#SVGID_1_"  overflow="visible"/>
			</clipPath>
			<g clip-path="url(#SVGID_2_)">
				<g>
					
						<rect x="63.131" y="-41.05" transform="matrix(-0.0082 1 -1 -0.0082 84.588 -59.5303)" fill="#E20D13" width="17.368" height="106.465"/>
					
						<rect x="62.967" y="-23.794" transform="matrix(-0.0082 1 -1 -0.0082 101.6783 -41.9677)" fill="#F18918" width="17.369" height="106.465"/>
					
						<rect x="62.801" y="-6.312" transform="matrix(-0.0082 1 -1 -0.0082 118.9917 -24.1781)" fill="#FDEA18" width="17.369" height="106.465"/>
					
						<rect x="62.864" y="10.946" transform="matrix(-0.0082 1 -1 -0.0082 136.313 -6.8383)" fill="#088036" width="17.367" height="106.464"/>
					
						<rect x="62.699" y="28.427" transform="matrix(-0.0082 1 -1 -0.0082 153.626 10.9504)" fill="#0664FF" width="17.368" height="106.466"/>
					
						<rect x="62.534" y="45.91" transform="matrix(-0.0082 1 -1 -0.0082 170.942 28.7437)" fill="#6F2281" width="17.367" height="106.464"/>
				</g>
			</g>
		</g>
	</g>
</g>
</svg>
